<svg width="130" height="69" viewBox="0 0 130 69" fill="none" xmlns="http://www.w3.org/2000/svg">
<path d="M15.3549 48.8002C16.2679 51.2262 18.0709 53.5112 19.7309 55.3222C21.9859 57.7822 24.7529 59.7272 27.8619 60.9442C33.2599 63.0562 39.6249 62.3952 44.3399 59.0742C49.2619 64.7552 56.3519 68.3322 63.9499 68.5692C68.0959 68.6992 72.2049 67.7552 75.9689 66.0462C77.9169 65.1622 79.717 63.9992 81.392 62.6712C82.549 61.7542 83.7629 60.7922 84.5269 59.5572C87.8479 62.5322 92.7349 64.4652 97.0499 64.0462C101.207 63.6432 105.055 61.4332 106.956 57.7562C113.047 58.4552 119.973 58.5462 124.412 53.6302C127.429 50.2892 127.967 44.9722 125.265 41.5172C127.224 39.8382 128.483 37.3742 128.888 34.8162C129.476 31.0992 128.333 27.5372 126.015 24.6122C122.02 19.5712 113.608 15.5112 107.179 17.9982C105.298 10.6592 99.6839 4.49619 92.6919 1.61719C84.6339 -1.70081 75.542 0.287188 68.932 5.75019C67.383 7.03119 66.02 8.52719 64.838 10.1532C60.422 5.31819 54.0669 2.32019 47.1699 2.62319C41.4139 2.87619 35.8259 5.33519 31.6789 9.32319C29.6419 11.2812 27.9719 13.6312 26.8309 16.2172C23.0299 15.0692 18.7939 15.5712 15.2739 17.7092C15.2219 17.7402 15.1729 17.7782 15.1219 17.8102C13.3879 18.6212 11.8529 19.8332 10.7059 21.4222C10.1159 22.2392 9.62795 23.1762 9.25595 24.1672C8.77495 25.0242 8.36695 25.9462 8.06395 26.8892C5.87595 27.6922 3.92595 29.2222 2.51595 31.0502C0.300947 33.9222 -0.482051 37.5902 0.290949 41.1322C1.80895 48.0952 9.18295 51.4912 15.3549 48.8002Z" fill="white"/>
<path d="M128.887 34.8162C129.475 31.0992 128.332 27.5372 126.014 24.6122C125.687 24.1992 125.32 23.7962 124.937 23.3992C124.609 25.9912 123.994 28.5122 122.735 30.7902C120.431 34.9582 115.288 37.9732 110.848 36.2522C107.779 42.3272 98.6579 44.2002 93.4429 39.8272C90.9229 43.6642 86.4069 46.1072 81.8169 46.1162C77.2269 46.1252 72.7009 43.7002 70.1659 39.8732C68.4739 46.6502 60.3699 50.3202 53.5069 49.0172C46.6449 47.7142 41.0669 42.6682 36.8709 37.0842C34.5999 39.1082 31.1939 39.7622 28.3359 38.7212C25.4779 37.6802 23.2889 34.9902 22.8509 31.9802C16.6349 32.6402 10.8729 26.2402 11.7859 20.1612C11.3989 20.5532 11.0329 20.9672 10.7049 21.4212C10.1149 22.2382 9.62694 23.1752 9.25494 24.1662C8.77394 25.0232 8.36594 25.9452 8.06294 26.8882C5.87494 27.6912 3.92494 29.2212 2.51494 31.0492C0.299942 33.9212 -0.483059 37.5892 0.289941 41.1312C1.80994 48.0952 9.18294 51.4912 15.3549 48.8002C16.2679 51.2262 18.0709 53.5112 19.7309 55.3222C21.9859 57.7822 24.7529 59.7272 27.8619 60.9442C33.2599 63.0562 39.6249 62.3952 44.3399 59.0742C49.2619 64.7552 56.3519 68.3322 63.9499 68.5692C68.0959 68.6992 72.2049 67.7552 75.9689 66.0462C77.9169 65.1622 79.7169 63.9992 81.3919 62.6712C82.5489 61.7542 83.7629 60.7922 84.5269 59.5572C87.8479 62.5322 92.7349 64.4652 97.0499 64.0462C101.207 63.6432 105.055 61.4332 106.956 57.7562C113.047 58.4552 119.973 58.5462 124.412 53.6302C127.429 50.2892 127.967 44.9722 125.265 41.5172C127.224 39.8382 128.483 37.3742 128.887 34.8162Z" fill="#E6EFF6"/>
<path d="M113.688 46.3282C112.033 46.1992 110.227 45.7582 108.813 46.6272C107.932 47.1682 107.402 48.1152 106.765 48.9282C105.096 51.0572 102.459 52.3962 99.755 52.4882C98.199 52.5412 96.605 52.2062 95.103 52.6182C93.927 52.9402 92.9199 53.6912 91.8009 54.1772C88.8309 55.4672 85.0739 54.6332 82.9279 52.2072C79.2279 58.0532 71.8869 60.9722 64.9839 60.5082C58.0809 60.0442 51.6449 56.6102 46.4059 52.0922C44.1039 54.1252 40.3719 54.3022 37.8889 52.4962C36.9799 51.8352 36.1839 50.9232 35.0879 50.6702C34.0819 50.4382 33.0519 50.8162 32.0369 51.0032C27.4419 51.8492 22.9859 48.6802 20.2609 44.8852C19.5619 43.9112 18.8619 42.8272 17.7449 42.3932C16.8399 42.0412 15.8319 42.1852 14.8609 42.2182C8.70395 42.4232 3.23595 36.9002 2.63095 30.9102C2.59395 30.9572 2.55195 31.0022 2.51595 31.0502C0.300947 33.9222 -0.482051 37.5902 0.290949 41.1322C1.81095 48.0962 9.18395 51.4922 15.3559 48.8012C16.2689 51.2272 18.0719 53.5122 19.7319 55.3232C21.9869 57.7832 24.7539 59.7282 27.8629 60.9452C33.2609 63.0572 39.6259 62.3962 44.3409 59.0752C49.2629 64.7562 56.3529 68.3332 63.9509 68.5702C68.0969 68.7002 72.2059 67.7562 75.9699 66.0472C77.9179 65.1632 79.718 64.0002 81.393 62.6722C82.55 61.7552 83.7639 60.7932 84.5279 59.5582C87.8489 62.5332 92.7359 64.4662 97.0509 64.0472C101.208 63.6442 105.056 61.4342 106.957 57.7572C113.048 58.4562 119.974 58.5472 124.413 53.6312C127.383 50.3422 127.944 45.1422 125.383 41.6842C122.192 44.6152 117.992 46.6642 113.688 46.3282Z" fill="#BED8E9"/>
<path d="M86.8539 21.9742C86.4709 20.9572 85.5829 20.1752 84.6889 19.5932C83.8199 19.0282 82.8279 18.6882 81.8049 18.5582C81.7149 18.5472 81.6239 18.5502 81.5329 18.5442C81.1799 17.7842 80.6029 17.0922 80.0789 16.4462C79.5299 15.7702 78.9299 15.1702 78.2379 14.6432C76.9039 13.6272 75.4059 13.0372 73.7449 12.8352C72.1499 12.6422 70.5129 13.0002 69.2229 13.9782C68.0099 14.8982 66.7229 16.4422 66.5189 17.9922C66.4499 18.5162 67.1999 18.9352 67.6149 18.6212C68.6809 17.8152 69.1639 16.4632 70.2329 15.6322C71.2239 14.8622 72.5659 14.6182 73.7839 14.8842C75.0279 15.1562 76.0939 15.9102 76.9709 16.8062C77.6659 17.5162 78.2019 18.3072 78.7589 19.0962C77.9059 19.5232 77.1659 20.1702 76.6779 21.0032C76.4649 21.3672 76.8759 21.6932 77.2139 21.5392C77.8929 21.2312 78.6949 20.9772 79.4369 20.8882C79.7789 20.8472 80.1379 20.8452 80.4819 20.8442C80.8239 20.8432 81.2699 20.8772 81.4859 20.9152C82.2439 21.0492 82.7029 21.2352 83.3329 21.6502C83.9059 22.0272 84.3129 22.6602 84.8359 23.1482C85.2299 23.5152 85.8249 23.6142 86.2989 23.3372C86.7309 23.0852 87.0399 22.4682 86.8539 21.9742Z" fill="#E6EFF6"/>
<path d="M41.128 19.8742C40.776 18.9302 39.8119 18.2472 38.9309 17.8212C38.0279 17.3852 37.036 17.1322 36.029 17.1542C34.288 17.1912 32.272 18.0072 31.425 19.6062C31.364 19.6302 31.314 19.6672 31.287 19.7232C31.168 19.9692 31.15 20.1242 31.21 20.3882C31.297 20.7692 31.814 20.9972 32.146 20.7692C33.363 19.9332 34.473 19.0052 36.029 18.9972C36.726 18.9932 37.426 19.1582 38.045 19.4802C38.743 19.8422 39.198 20.4472 39.85 20.8582C40.459 21.2412 41.397 20.5952 41.128 19.8742Z" fill="#E6EFF6"/>
</svg>
