<svg width="112" height="70" viewBox="0 0 112 70" fill="none" xmlns="http://www.w3.org/2000/svg">
<path d="M108.24 35.4303C110.159 33.3613 111.019 30.2873 110.057 27.5683C108.988 24.5473 106.232 22.6413 103.188 22.3633C104.554 8.59926 86.7074 -5.85173 74.1794 2.42827C71.8154 3.99027 70.0195 6.13524 69.0535 8.69124C64.8355 4.40924 58.2504 2.52426 52.4554 4.51326C46.5854 6.52826 42.3555 12.1632 41.7685 18.2692C38.1655 15.9332 33.3665 15.5483 29.4975 17.5863C25.9095 19.4763 23.6745 23.1963 23.2715 27.1303C20.3915 24.9993 16.5485 24.2102 13.0795 25.4672C10.1825 26.5172 7.91045 28.8412 6.74045 31.6312C6.33045 31.5912 5.90847 31.6143 5.48947 31.6863C3.47347 32.0323 1.18945 33.3582 0.481446 35.3642C0.439446 35.4832 0.422464 35.6043 0.393464 35.7243C0.251464 35.9963 0.134466 36.2863 0.0704661 36.6043C-0.249534 38.2153 0.544464 39.9783 1.96246 40.8013C2.20346 40.9413 2.45346 41.0453 2.70746 41.1333C3.91446 42.1093 5.38746 42.6963 6.91046 42.9833C7.56846 44.9203 8.96946 46.5993 10.8715 47.4663C13.1655 48.5113 15.8694 48.2622 17.9944 46.9942C18.2844 53.5562 21.4664 59.9253 26.5464 64.1093C32.3074 68.8533 39.7835 70.1332 46.9525 68.4072C50.1345 67.6412 53.1185 66.2343 55.7005 64.2513C61.4985 68.0623 68.8854 70.0672 75.6024 69.2272C79.2164 68.7752 82.1325 66.9052 84.2885 64.0792C85.9155 64.2612 87.5434 64.4182 89.1844 64.4032C92.9184 64.3682 96.8294 63.4683 99.5034 60.6973C101.708 58.4123 102.876 55.2672 102.175 52.2402C106.314 50.9762 110.659 48.3222 111.525 43.8342C112.151 40.6042 110.885 37.1263 108.24 35.4303Z" fill="white"/>
<path d="M102.178 52.2412C106.317 50.9772 110.662 48.3232 111.528 43.8352C111.568 43.6272 111.578 43.4173 111.603 43.2083C106.242 45.2373 99.8365 44.7252 95.2865 41.1742C93.8055 44.9582 89.6005 47.4762 85.5655 46.9942C81.5305 46.5122 76.4545 42.8152 75.9065 38.7882C73.9125 42.3182 70.0645 44.7282 66.0185 44.9812C61.9725 45.2342 57.8545 43.3222 55.4355 40.0682C54.2105 44.3712 50.0215 47.4182 45.6035 48.1212C41.1855 48.8252 36.6395 47.4862 32.7455 45.2842C29.1535 43.2542 25.9065 40.3852 24.1565 36.6482C22.0865 37.6522 19.9485 38.6742 17.6515 38.8052C15.3545 38.9372 12.8355 37.9542 11.8455 35.8782C10.1255 37.2232 7.64246 37.5123 5.66046 36.5963C4.14246 35.8953 2.97744 34.5092 2.47244 32.9202C1.57244 33.5432 0.833452 34.3693 0.482452 35.3633C0.440452 35.4823 0.423469 35.6032 0.394469 35.7232C0.252469 35.9952 0.135441 36.2852 0.0714409 36.6032C-0.248559 38.2142 0.54547 39.9772 1.96347 40.8002C2.20447 40.9402 2.45446 41.0442 2.70846 41.1322C3.91546 42.1082 5.38847 42.6952 6.91147 42.9822C7.56947 44.9192 8.97047 46.5982 10.8725 47.4652C13.1665 48.5102 15.8705 48.2612 17.9955 46.9932C18.2855 53.5552 21.4675 59.9242 26.5475 64.1082C32.3085 68.8522 39.7845 70.1322 46.9535 68.4062C50.1355 67.6403 53.1194 66.2332 55.7014 64.2502C61.4994 68.0612 68.8865 70.0662 75.6035 69.2262C79.2175 68.7742 82.1335 66.9042 84.2895 64.0782C85.9165 64.2602 87.5445 64.4173 89.1855 64.4023C92.9195 64.3673 96.8305 63.4672 99.5045 60.6962C101.711 58.4132 102.879 55.2672 102.178 52.2412Z" fill="#E6EFF6"/>
<path d="M98.3165 49.1162C97.8355 51.8092 95.7104 54.0602 93.1454 55.0122C90.5804 55.9642 87.6605 55.7062 85.1425 54.6352C84.3635 54.3042 83.5775 53.8892 82.7305 53.9092C81.2795 53.9432 80.2065 55.1922 79.0775 56.1052C76.1885 58.4422 72.0775 58.8212 68.4825 57.8812C64.8875 56.9412 61.7124 54.8413 58.7484 52.6003C56.5964 56.7013 52.2045 59.5343 47.5815 59.8033C42.9585 60.0723 38.2674 57.7692 35.6534 53.9462C32.4324 56.4522 27.5154 55.4772 24.3914 52.8512C21.2674 50.2242 19.5115 46.3612 17.8545 42.6312C15.4875 45.0482 11.9515 46.1842 8.60345 45.8112C9.24145 46.4962 10.0025 47.0702 10.8745 47.4672C13.1685 48.5122 15.8725 48.2632 17.9975 46.9952C18.2875 53.5572 21.4695 59.9262 26.5495 64.1102C32.3105 68.8542 39.7864 70.1342 46.9554 68.4082C50.1374 67.6422 53.1215 66.2352 55.7035 64.2522C61.5015 68.0632 68.8885 70.0682 75.6055 69.2282C79.2195 68.7762 82.1354 66.9062 84.2914 64.0802C85.9184 64.2622 87.5465 64.4192 89.1875 64.4042C92.9215 64.3692 96.8325 63.4692 99.5065 60.6982C101.711 58.4132 102.879 55.2682 102.178 52.2412C103.392 51.8702 104.621 51.3762 105.777 50.7552C103.207 50.7382 100.645 50.2042 98.3165 49.1162Z" fill="#BED8E9"/>
<path d="M91.9705 28.6252C90.9875 28.0662 89.8935 27.7542 88.7775 27.6072C88.8725 26.8242 88.6545 25.9712 88.4525 25.2412C88.2005 24.3282 87.8235 23.4262 87.3415 22.6102C86.3175 20.8782 84.7855 19.5062 82.9025 18.7832C81.1515 18.1112 79.0075 18.0032 77.2455 18.7022C76.3525 19.0572 75.5445 19.5672 74.8625 20.2462C74.4555 20.6522 74.1165 21.1282 73.8035 21.6082C73.6665 21.8192 73.5495 22.0192 73.4395 22.2442C73.3805 22.3642 73.2595 22.8342 73.1545 22.9022H73.2085C73.0925 22.9562 72.9975 23.0372 72.9485 23.1702C72.9445 23.1822 72.9395 23.1942 72.9355 23.2062C72.8555 23.4232 72.9875 23.7072 73.1835 23.8152C73.9785 24.2532 74.6365 23.4912 75.1525 22.9562C75.7765 22.3092 76.4085 21.6632 77.2245 21.2602C78.5575 20.6012 80.1445 20.5602 81.5475 20.9972C82.9935 21.4472 84.1815 22.4752 84.9635 23.7582C85.3815 24.4442 85.6824 25.1712 85.8864 25.9482C86.0254 26.4752 86.0575 27.0852 86.1895 27.6432C85.7065 27.7282 85.2295 27.8462 84.7715 28.0232C84.1665 28.2572 83.6214 28.5602 83.1274 28.9842C82.7604 29.3002 82.1535 30.1232 82.8125 30.4942C83.2265 30.7262 83.7025 30.5592 84.1255 30.4322C84.5485 30.3052 84.9885 30.2082 85.4205 30.1152C86.1845 29.9512 87.0935 29.9202 87.9345 30.0032C88.1675 30.0262 88.6265 30.1182 88.9935 30.2222C89.4475 30.3502 89.7444 30.4672 90.0634 30.6282C90.4514 30.8242 90.8305 31.0442 91.1805 31.3032C91.2085 31.3272 91.2995 31.4002 91.3255 31.4222C91.4155 31.4992 91.4995 31.5822 91.5885 31.6602C91.6105 31.6792 91.6525 31.7242 91.6705 31.7412C91.7345 31.8282 91.7845 31.9212 91.8455 32.0112C92.2465 32.6132 93.2305 32.8992 93.7685 32.2592C95.0435 30.7402 93.2125 29.3312 91.9705 28.6252Z" fill="#E6EFF6"/>
<path d="M48.3525 26.6492C47.5145 26.0352 46.4595 25.6982 45.4205 25.6892C43.3245 25.6702 41.3275 27.0662 40.8685 29.1492C40.8325 29.3122 40.8565 29.5282 40.9985 29.6412C40.9805 29.6232 40.9635 29.6043 40.9455 29.5863C40.9815 29.8173 41.2225 29.8563 41.4045 29.7853C41.5665 29.7803 41.7035 29.6602 41.7935 29.5382C42.6475 28.3802 44.1145 27.6562 45.4215 27.7492C45.6215 27.7632 45.5655 27.7563 45.8225 27.8193C45.9725 27.8563 46.2225 27.9352 46.2905 27.9632C46.4855 28.0422 46.9715 28.3252 47.1395 28.4512C47.1785 28.4802 47.4075 28.6843 47.5035 28.7803C47.5705 28.8483 47.6335 28.9202 47.6985 28.9902L47.7725 29.0772C47.7305 29.0202 47.7315 29.0212 47.7755 29.0812C48.0695 29.4492 48.3735 29.8313 48.8005 30.0523C49.2525 30.2863 49.8105 30.0883 49.9565 29.5823C50.3045 28.3703 49.2415 27.3012 48.3525 26.6492Z" fill="#E6EFF6"/>
</svg>
