<svg width="139" height="57" viewBox="0 0 139 57" fill="none" xmlns="http://www.w3.org/2000/svg">
<path d="M135.997 29.5288C133.359 25.5958 128.972 23.0968 124.222 22.9778C122.897 22.9448 121.395 23.0738 119.972 23.4358C119.617 21.9258 119.079 20.4568 118.396 19.0648C115.426 13.0078 109.512 8.66975 102.77 7.98675C97.556 7.45775 91.708 9.18575 87.633 12.7268C87.445 12.4258 87.259 12.1218 87.058 11.8288C84.668 8.35976 81.515 5.33576 77.856 3.23376C70.363 -1.07224 61.202 -0.96924 53.549 2.89576C49.656 4.86176 46.292 7.77875 43.825 11.3648C39.232 6.61075 31.635 5.86276 25.752 8.62376C22.427 10.1838 19.665 12.7688 17.574 15.7588C16.513 17.2768 15.671 18.9067 14.948 20.6077C14.553 21.5367 14.161 22.6017 13.144 22.9997C12.189 23.3737 11.106 23.3397 10.116 23.5837C6.95602 24.3637 4.33803 26.9698 3.56503 30.1028C2.09303 30.3008 0.919015 31.4017 0.352015 32.8037C-0.374985 34.5997 0.0530053 36.5268 1.39801 37.9058C4.80701 41.4008 9.57702 39.7808 13.426 37.9148C14.025 40.8348 16.259 43.3768 19.14 44.2548C22.038 45.1378 25.121 44.2318 27.287 42.2528C33.209 51.6378 47.152 54.7157 56.459 48.6137C61.213 53.7257 68.147 56.4018 75.102 56.5128C75.116 56.5158 75.128 56.5228 75.142 56.5248C78.299 56.8258 81.576 56.5098 84.707 56.0648C87.865 55.6158 90.95 54.7947 93.817 53.3767C95.977 52.3087 97.934 50.9368 99.823 49.4658C100.556 49.7518 101.295 50.0228 102.075 50.1798C105.028 50.7738 108.131 50.4947 110.926 49.3717C112.172 48.8707 113.325 48.2198 114.395 47.4188C116.741 47.9578 119.138 48.3738 121.541 48.4078C126.574 48.4798 131.976 46.6028 135.432 42.8318C138.973 38.9718 138.849 33.7818 135.997 29.5288Z" fill="white"/>
<path d="M133.868 32.8948C130.424 35.6298 124.816 35.0198 122.041 31.6088C121.288 34.6198 117.582 36.1438 114.565 35.4118C111.549 34.6798 107.782 31.3228 106 28.7818C104.697 32.0418 100.79 33.7068 97.306 33.2798C93.822 32.8528 90.757 30.7448 88.244 28.2938C86.751 32.0328 82.128 33.7048 78.145 33.1168C74.162 32.5288 70.674 30.2218 67.334 27.9748C62.59 32.9948 55.995 36.4868 49.088 36.5708C42.181 36.6548 35.121 32.9548 32.073 26.7568C31.029 29.1218 28.454 30.7198 25.871 30.6058C23.288 30.4918 20.864 28.6728 20.033 26.2248C18.621 28.3018 15.78 29.2798 13.39 28.5118C11.331 27.8498 9.76201 25.9398 9.40401 23.8188C6.57101 24.7908 4.27801 27.2148 3.56401 30.1068C2.09201 30.3048 0.918001 31.4058 0.351001 32.8078C-0.375999 34.6038 0.0520211 36.5308 1.39702 37.9098C4.80602 41.4048 9.57601 39.7848 13.425 37.9188C14.024 40.8388 16.258 43.3808 19.139 44.2588C22.037 45.1418 25.12 44.2358 27.286 42.2568C33.208 51.6418 47.151 54.7198 56.458 48.6178C61.212 53.7298 68.146 56.4058 75.101 56.5168C75.115 56.5198 75.127 56.5268 75.141 56.5288C78.298 56.8298 81.575 56.5138 84.706 56.0688C87.864 55.6198 90.949 54.7988 93.816 53.3808C95.976 52.3128 97.933 50.9408 99.822 49.4698C100.555 49.7558 101.294 50.0268 102.074 50.1838C105.027 50.7778 108.13 50.4987 110.925 49.3757C112.171 48.8747 113.324 48.2238 114.394 47.4228C116.74 47.9618 119.137 48.3778 121.54 48.4118C126.573 48.4838 131.975 46.6068 135.431 42.8358C138.891 39.0608 138.844 34.0228 136.181 29.8268C135.664 31.0138 134.891 32.0818 133.868 32.8948Z" fill="#E6EFF6"/>
<path d="M135.432 42.8358C136.881 41.2548 137.707 39.4508 137.992 37.5808C132.576 41.5198 125.127 42.7818 118.891 40.2228C114.254 43.0238 107.819 42.4258 103.778 38.8188C101.077 42.7068 95.394 44.1638 91.155 42.0548C90.198 41.5788 89.218 40.9268 88.159 41.0738C87.229 41.2028 86.509 41.9168 85.736 42.4488C81.96 45.0448 76.694 43.3088 73 40.5978C72.238 40.0388 71.384 39.4078 70.45 39.5508C69.782 39.6538 69.246 40.1348 68.731 40.5718C59.833 48.1238 44.789 46.7178 37.444 37.6478C33.294 40.1508 27.32 38.9458 24.464 35.0318C20.584 37.8098 14.393 36.3638 12.145 32.1548C9.65902 36.0288 3.85703 37.1098 0.0090332 34.7108C0.0430332 35.8838 0.521027 37.0128 1.39603 37.9098C4.80503 41.4048 9.57501 39.7848 13.424 37.9188C14.023 40.8388 16.257 43.3808 19.138 44.2588C22.036 45.1418 25.119 44.2358 27.285 42.2568C33.207 51.6418 47.15 54.7198 56.457 48.6178C61.211 53.7298 68.145 56.4058 75.1 56.5168C75.114 56.5198 75.126 56.5268 75.14 56.5288C78.297 56.8298 81.574 56.5138 84.705 56.0688C87.863 55.6198 90.948 54.7988 93.815 53.3808C95.975 52.3128 97.932 50.9408 99.821 49.4698C100.554 49.7558 101.293 50.0268 102.073 50.1838C105.026 50.7778 108.129 50.4988 110.924 49.3758C112.17 48.8748 113.323 48.2238 114.393 47.4228C116.739 47.9618 119.136 48.3778 121.539 48.4118C126.574 48.4838 131.976 46.6068 135.432 42.8358Z" fill="#BED8E9"/>
<path d="M60.578 19.1568C60.106 18.1808 58.464 18.0207 57.495 17.9977C56.568 17.9757 55.657 18.1397 54.792 18.4507C54.496 18.0177 54.052 17.6697 53.623 17.3467C52.991 16.8697 52.324 16.4217 51.635 16.0307C50.2 15.2167 48.546 14.5228 46.864 14.7148C45.28 14.8948 43.856 15.7757 42.833 16.9807C42.294 17.6157 41.822 18.3487 41.511 19.1227C41.257 19.7547 40.727 20.8097 41.17 21.4487C41.256 21.5727 41.404 21.6977 41.57 21.6777C42.225 21.5987 42.52 21.0427 42.864 20.5347C43.255 19.9587 43.637 19.3567 44.082 18.8207C44.831 17.9187 45.802 17.0577 47.022 16.9407C48.313 16.8167 49.471 17.4987 50.489 18.2067C50.996 18.5597 51.511 18.9117 51.996 19.2957C52.2 19.4577 52.378 19.6317 52.554 19.8037C52.243 20.0977 51.952 20.4147 51.69 20.7627C51.37 21.1877 51.122 21.6677 50.948 22.1727C50.776 22.6717 50.836 23.0867 50.947 23.5827C50.985 23.7507 51.186 23.7707 51.301 23.6757C51.616 23.4147 51.924 23.2147 52.197 22.8987C52.47 22.5827 52.756 22.2828 53.055 21.9908C53.621 21.4378 54.337 20.9727 55.059 20.6537C55.823 20.3157 56.666 20.1977 57.495 20.2397C58.305 20.2817 59.293 20.7797 60.063 20.4867C60.051 20.4937 60.04 20.4997 60.029 20.5067C60.283 20.4547 60.491 20.3667 60.72 20.2437C60.791 20.2057 60.846 20.1158 60.841 20.0338C60.818 19.7008 60.753 19.4438 60.578 19.1568Z" fill="#E6EFF6"/>
<path d="M104.402 20.1198C103.986 19.8028 103.548 19.5117 103.081 19.2757C102.108 18.7847 100.974 18.4177 99.87 18.5217C98.792 18.6237 97.801 19.0108 97.011 19.7658C96.426 20.3248 95.478 21.7977 96.368 22.4957C96.756 22.8007 97.405 22.7498 97.539 22.1868C97.512 22.2998 97.549 22.1767 97.59 22.1317C97.706 22.0027 97.442 22.2868 97.675 22.0358C97.78 21.9228 97.895 21.8208 98.004 21.7128C98.017 21.6998 98.093 21.6328 98.107 21.6168C98.15 21.5858 98.195 21.5547 98.239 21.5257C98.312 21.4787 98.388 21.4378 98.464 21.3958C98.494 21.3788 98.5381 21.3578 98.5661 21.3438C98.8691 21.2238 99.188 21.1698 99.502 21.0878C99.509 21.0858 99.509 21.0847 99.515 21.0837C99.527 21.0827 99.532 21.0828 99.546 21.0828C99.618 21.0778 99.689 21.0728 99.762 21.0698C99.942 21.0638 100.124 21.0628 100.303 21.0728C100.375 21.0768 100.446 21.0847 100.518 21.0907C100.228 21.0687 100.493 21.0927 100.558 21.1057C100.749 21.1447 100.937 21.1957 101.122 21.2567C101.116 21.2547 101.253 21.3028 101.316 21.3248C101.36 21.3458 101.509 21.4098 101.528 21.4188C101.703 21.5038 101.874 21.5978 102.041 21.6978C102.228 21.8098 102.411 21.9297 102.588 22.0557C102.608 22.0697 102.718 22.1507 102.735 22.1617C102.788 22.2037 102.841 22.2468 102.893 22.2898C103.371 22.6798 103.866 23.1698 104.531 23.1218C105.156 23.0758 105.706 22.6228 105.699 21.9538C105.69 21.0868 105.027 20.5968 104.402 20.1198Z" fill="#E6EFF6"/>
</svg>
