<svg width="89" height="63" viewBox="0 0 89 63" fill="none" xmlns="http://www.w3.org/2000/svg">
<path d="M0.00313716 36.9006C0.0481372 38.5506 1.21212 40.0785 2.63412 40.8335C4.26212 41.6975 6.14714 41.6296 7.92114 41.2836C8.85614 47.9186 13.5391 53.7516 19.9311 55.9516C26.3381 58.1576 33.5041 56.2926 38.4351 51.8366C42.3671 56.8546 48.2621 60.5625 54.5351 61.6685C61.0561 62.8195 67.7141 61.0545 72.7561 56.7395C75.1841 54.6615 77.0701 52.0125 78.2061 49.0365C82.0671 49.6335 86.2331 47.5856 87.8271 43.9306C89.4271 40.2616 88.1471 35.8556 85.1001 33.3966C87.8971 27.3196 86.2771 19.4766 80.9471 15.2756C75.7181 11.1546 67.9711 11.3236 62.7071 15.2116C59.7721 8.02756 53.8301 1.99955 46.0271 0.425551C41.7101 -0.445449 37.1671 -0.00544417 33.2121 1.98656C29.6871 3.76156 26.9031 6.69254 24.7511 9.95354C22.5121 13.3465 20.9111 17.1135 19.4351 20.8945C15.7041 19.1335 11.0271 19.9875 8.11913 22.9885C6.54313 24.6145 5.47114 26.7586 5.10214 28.9916C4.92114 30.0886 4.92112 31.1625 4.98312 32.2695C5.01412 32.8235 5.08212 33.4516 5.04012 34.0516C3.15212 32.5206 -0.0668628 34.3376 0.00313716 36.9006Z" fill="white"/>
<path d="M85.0991 33.3965C87.1131 29.0195 86.8251 23.7325 84.5221 19.5445C84.5221 20.1595 84.5151 20.7735 84.4791 21.3875C84.3151 24.1615 83.5901 27.0485 81.6521 29.0395C79.7141 31.0305 76.3161 31.7715 74.1001 30.0955C71.5601 34.0545 65.5711 35.2525 61.7021 32.5765C60.2631 37.3455 54.3391 39.3005 49.3981 38.6635C44.3501 38.0125 39.5841 35.3785 36.3471 31.4505C34.3091 35.3445 29.8831 37.8545 25.4951 37.6055C21.1071 37.3555 16.9941 34.3605 15.4111 30.2605C14.7011 32.6995 10.9831 32.9595 9.11913 31.2335C7.41513 29.6555 6.90113 27.2295 6.64813 24.8915C5.87613 26.1445 5.34013 27.5485 5.10113 28.9925C4.92013 30.0895 4.92014 31.1635 4.98214 32.2705C5.01314 32.8245 5.08112 33.4525 5.03912 34.0525C3.15012 32.5205 -0.068877 34.3375 0.00112299 36.9015C0.046123 38.5515 1.21013 40.0795 2.63213 40.8345C4.26013 41.6985 6.14512 41.6305 7.91912 41.2845C8.85412 47.9195 13.5371 53.7525 19.9291 55.9525C26.3361 58.1585 33.5021 56.2935 38.4331 51.8375C42.3651 56.8555 48.2601 60.5635 54.5331 61.6695C61.0541 62.8205 67.7121 61.0555 72.7541 56.7405C75.1821 54.6625 77.0681 52.0135 78.2041 49.0375C82.0651 49.6345 86.2311 47.5865 87.8251 43.9315C89.4261 40.2605 88.1461 35.8555 85.0991 33.3965Z" fill="#E6EFF6"/>
<path d="M87.8261 43.9305C88.5551 42.2585 88.6812 40.4335 88.3192 38.7095C87.1272 40.1645 85.7942 41.4745 84.1762 42.4225C81.1762 44.1785 76.9152 44.3015 74.5562 41.7485C72.9802 45.6785 70.5121 49.4655 66.7741 51.4535C62.6651 53.6395 57.5542 53.3045 53.2672 51.4915C48.9802 49.6785 45.3922 46.5415 42.1382 43.2125C39.3482 46.9405 33.5832 48.0145 29.6372 45.5415C26.3622 48.2915 21.3902 48.3505 17.5382 46.4905C13.6862 44.6305 10.8282 41.1635 8.72715 37.4375C5.94915 38.8405 2.32315 38.1875 0.110149 36.0315C0.0351492 36.3085 -0.00585246 36.5985 0.00214754 36.8995C0.0471475 38.5495 1.21116 40.0775 2.63316 40.8325C4.26116 41.6965 6.14615 41.6285 7.92015 41.2825C8.85515 47.9175 13.5382 53.7505 19.9302 55.9505C26.3372 58.1565 33.5032 56.2915 38.4342 51.8355C42.3662 56.8535 48.2612 60.5615 54.5342 61.6675C61.0552 62.8185 67.7131 61.0535 72.7551 56.7385C75.1831 54.6605 77.0691 52.0115 78.2051 49.0355C82.0671 49.6335 86.2321 47.5855 87.8261 43.9305Z" fill="#BED8E9"/>
<path d="M52.2921 25.5385C52.2871 25.5295 52.2812 25.5225 52.2762 25.5125C52.3682 25.6865 52.3391 25.6315 52.2921 25.5385Z" fill="#E6EFF6"/>
<path d="M62.8731 23.3085C62.4791 21.8985 60.9351 21.4085 59.6281 21.2885C58.9381 21.2245 58.2471 21.2966 57.5671 21.4356C57.4331 20.6026 56.8052 19.9325 56.2842 19.2895C55.8002 18.6925 55.2701 18.1375 54.6701 17.6565C53.3741 16.6165 51.7791 15.8835 50.0851 15.9295C48.5241 15.9715 47.0642 16.7106 46.0822 17.9226C45.6012 18.5166 45.1941 19.1565 44.8281 19.8265C44.4951 20.4365 43.9112 21.2835 43.9872 21.9985C44.0292 22.3885 44.3721 22.7735 44.8091 22.6245C45.4351 22.4105 45.7971 21.8335 46.1951 21.3335C46.5681 20.8645 46.9552 20.4035 47.3832 19.9835C48.1182 19.2635 49.0131 18.5825 50.0851 18.5595C51.2031 18.5355 52.2692 19.0686 53.0902 19.7976C53.5702 20.2246 54.0091 20.7035 54.4041 21.2095C54.6741 21.5555 54.8992 21.8845 55.1632 22.1715C54.4132 22.4685 53.6972 22.8325 53.0952 23.3895C52.7392 23.7185 52.4042 24.1265 52.2632 24.5965C52.1972 24.8185 52.1272 25.1035 52.1892 25.3315C52.1922 25.3425 52.2491 25.4545 52.2921 25.5365C52.3371 25.6215 52.3772 25.6975 52.4442 25.7755C52.5642 25.9165 52.7681 25.9056 52.9191 25.8366C52.9581 25.8186 52.9831 25.7865 53.0151 25.7645C53.2811 25.6665 53.4692 25.4135 53.7022 25.2405C53.9612 25.0485 54.2031 24.9315 54.4931 24.8375C55.3401 24.5625 56.2001 24.3105 57.0661 24.1005C57.8921 23.8995 58.8511 23.7125 59.5911 23.8525C60.0231 23.9335 60.3061 24.0365 60.6351 24.2685C60.8041 24.3875 60.9691 24.5305 61.1481 24.6335C61.2991 24.7205 61.4471 24.7575 61.5981 24.7695C61.6741 24.8835 61.8221 24.9405 61.9591 24.8595C62.1721 24.7345 62.3862 24.6125 62.5732 24.4495C62.8802 24.1835 62.9801 23.6895 62.8731 23.3085Z" fill="#E6EFF6"/>
</svg>
