<svg width="96" height="64" viewBox="0 0 96 64" fill="none" xmlns="http://www.w3.org/2000/svg">
<path d="M9.707 44.545C11.031 44.734 12.357 44.803 13.686 44.731C13.955 46.011 14.435 47.253 14.981 48.299C16.234 50.699 18.291 52.736 20.769 53.846C25.278 55.865 30.761 54.916 34.427 51.688C41.042 58.855 49.694 65.407 59.989 63.045C62.21 62.536 64.344 61.579 66.153 60.192C66.99 59.55 67.749 58.847 68.414 58.025C69.137 57.13 69.582 55.912 70.345 55.085C71.162 54.199 72.808 54.68 73.87 54.742C75.3041 54.8267 76.7429 54.7863 78.17 54.621C80.954 54.298 83.647 53.569 86.149 52.289C88.577 51.047 90.813 49.263 92.001 46.751C92.865 44.925 93.106 42.935 92.373 41.193C95.721 37.951 96.549 32.324 93.624 28.469C90.931 24.921 86.018 24.003 82.101 25.666C81.072 21.789 78.839 18.073 75.063 16.452C72.203 15.225 68.811 15.373 66.232 16.946C64.218 10.27 59.199 4.76699 52.576 2.20399C44.908 -0.763007 36.173 1.739 30.698 7.735C28.18 10.493 26.465 13.828 25.779 17.449C22.787 16.602 19.469 17.112 16.967 19.092C14.987 20.658 13.797 22.945 13.448 25.374C11.978 25.03 10.346 25.258 8.94599 26.151C7.51299 27.065 6.70599 28.375 6.33099 29.833C4.61099 30.312 3.06099 31.508 1.97799 32.947C0.0969917 35.446 0.0459901 38.541 2.09199 40.939C3.95999 43.127 6.945 44.15 9.707 44.545Z" fill="white"/>
<path d="M92.002 46.751C92.866 44.925 93.107 42.935 92.374 41.193C95.722 37.951 96.55 32.324 93.625 28.469C93.229 27.947 92.78 27.489 92.298 27.08C92.195 30.039 91.361 32.924 89.546 35.241C86.477 39.159 80.192 40.624 76.332 37.483C75.478 39.499 73.455 40.968 71.274 41.157C69.093 41.346 66.848 40.246 65.66 38.407C63.378 43.91 56.757 46.809 50.87 45.895C44.983 44.981 39.952 40.892 36.651 35.933C34.716 39.547 30.392 41.717 26.339 41.109C22.286 40.501 18.789 37.157 18 33.135C16.22 34.608 13.396 34.037 11.671 32.499C9.974 30.985 9.084 28.791 8.261 26.668C7.253 27.53 6.64299 28.629 6.33399 29.833C4.61399 30.312 3.064 31.508 1.981 32.947C0.0999976 35.446 0.0489961 38.541 2.095 40.939C3.961 43.127 6.94699 44.15 9.70799 44.545C11.032 44.734 12.358 44.803 13.687 44.731C13.956 46.011 14.436 47.253 14.982 48.299C16.235 50.699 18.292 52.736 20.77 53.846C25.279 55.865 30.762 54.916 34.428 51.688C41.043 58.855 49.695 65.407 59.99 63.045C62.211 62.536 64.345 61.579 66.154 60.192C66.991 59.55 67.75 58.847 68.415 58.025C69.138 57.13 69.583 55.912 70.346 55.085C71.163 54.199 72.809 54.68 73.871 54.742C75.3051 54.8267 76.7439 54.7863 78.171 54.621C80.955 54.298 83.648 53.569 86.15 52.289C88.577 51.047 90.814 49.263 92.002 46.751Z" fill="#E6EFF6"/>
<path d="M92.002 46.751C92.813 45.036 93.064 43.18 92.486 41.517C92.296 41.822 92.109 42.129 91.909 42.427C90.138 45.076 86.652 47.717 83.993 45.905C81.395 49.9 75.706 51.664 71.217 49.867C68.605 55.366 61.636 58.116 55.521 57.02C49.406 55.924 44.27 51.595 41.086 46.39C38.959 48.874 34.411 48.75 32.43 46.154C28.057 48.375 22.207 47.361 18.888 43.806C18.005 42.86 17.254 41.734 16.091 41.143C14.981 40.578 13.671 40.591 12.43 40.43C8.02599 39.858 4.068 36.753 2.554 32.683L2.261 32.603C2.167 32.717 2.06999 32.83 1.98199 32.947C0.100989 35.446 0.0499879 38.541 2.09599 40.939C3.96199 43.127 6.94799 44.15 9.70899 44.545C11.033 44.734 12.359 44.803 13.688 44.731C13.957 46.011 14.437 47.253 14.983 48.299C16.236 50.699 18.293 52.736 20.771 53.846C25.28 55.865 30.763 54.916 34.429 51.688C41.044 58.855 49.696 65.407 59.991 63.045C62.212 62.536 64.346 61.579 66.155 60.192C66.992 59.55 67.751 58.847 68.416 58.025C69.139 57.13 69.584 55.912 70.347 55.085C71.164 54.199 72.81 54.68 73.872 54.742C75.3061 54.8267 76.7449 54.7863 78.172 54.621C80.956 54.298 83.649 53.569 86.151 52.289C88.577 51.047 90.814 49.263 92.002 46.751ZM95.075 36.504C94.559 37.749 93.962 38.961 93.301 40.14C94.13 39.061 94.732 37.816 95.075 36.504Z" fill="#BED8E9"/>
<path d="M63.514 24.484C62.857 24.077 62.143 23.783 61.401 23.585C61.377 23.207 61.258 22.852 61.116 22.504C60.811 21.759 60.374 21.117 59.859 20.5C58.913 19.367 57.693 18.548 56.28 18.132C54.955 17.742 53.537 17.769 52.256 18.302C51.637 18.559 51.076 18.903 50.579 19.357C50.333 19.582 50.121 19.844 49.931 20.118C49.853 20.231 49.774 20.349 49.712 20.472C49.662 20.569 49.627 20.672 49.598 20.777C49.537 20.822 49.481 20.874 49.434 20.942C49.425 20.955 49.416 20.967 49.408 20.98C49.288 21.152 49.287 21.454 49.408 21.625C50.273 22.846 51.366 21.1 52.1 20.651C52.921 20.149 53.986 19.964 54.863 20.134C55.908 20.336 56.843 20.977 57.561 21.716C57.974 22.141 58.266 22.534 58.55 23.063C58.614 23.182 58.662 23.29 58.704 23.402C58.208 23.489 57.724 23.644 57.271 23.872C56.509 24.256 55.574 25.004 55.66 25.958C55.693 26.326 56.015 26.492 56.345 26.351C56.93 26.101 57.381 25.644 58.006 25.47C58.638 25.294 59.316 25.296 59.881 25.459C60.677 25.689 61.385 26.17 62.091 26.629C62.459 26.868 62.815 27.126 63.165 27.389C63.346 27.525 63.525 27.661 63.71 27.79C63.462 27.617 63.799 27.86 63.863 27.909C63.598 27.703 64.009 28.022 64.066 28.056C64.706 28.441 65.504 28.066 65.716 27.385C66.159 25.966 64.5 25.095 63.514 24.484ZM28.65 23.94C27.775 23.44 26.631 23.324 25.645 23.259C24.66 23.194 23.588 23.326 22.773 23.925C22.1 24.42 21.375 25.354 21.694 26.246C21.822 26.605 22.316 26.708 22.525 26.355C22.665 26.118 22.749 25.862 22.937 25.656C23.134 25.441 23.324 25.254 23.58 25.11C24.174 24.777 24.858 24.757 25.521 24.82C26.164 24.88 26.905 24.994 27.503 25.248C27.783 25.367 27.966 25.512 28.148 25.755C28.193 25.815 28.345 26.045 28.427 26.143C28.495 26.226 28.596 26.293 28.649 26.382C28.797 26.628 29.155 26.686 29.36 26.474C30.2 25.604 29.557 24.458 28.65 23.94Z" fill="#E6EFF6"/>
</svg>
