<svg width="1103" height="194" viewBox="0 0 1103 194" fill="none" xmlns="http://www.w3.org/2000/svg">
<path fill-rule="evenodd" clip-rule="evenodd" d="M1102.26 193.148C1102.26 193.148 1018.25 111.613 929.309 170.91C929.309 170.91 882.359 106.672 828.012 111.613C828.012 111.613 793.422 2.90238 689.645 7.84379C585.871 12.7852 553.754 114.086 553.754 114.086C553.754 114.086 501.867 64.668 459.867 104.199C459.867 104.199 494.457 20.1953 407.98 2.89847C321.504 -14.3945 304.211 81.9649 323.977 114.086C323.977 114.086 299.27 91.8477 281.973 126.438C281.973 126.438 254.797 119.023 254.797 156.086C254.797 156.086 217.734 111.613 155.965 161.027C155.965 161.027 109.02 123.965 81.8438 183.266C81.8438 183.266 37.3711 146.203 0.308594 188.207L1102.26 193.148Z" fill="white"/>
<path fill-rule="evenodd" clip-rule="evenodd" d="M90.8477 188.613L1102.26 193.148C1102.26 193.148 1011.15 128.723 933.961 184.391C933.961 184.391 910.949 136.891 864.191 150.992C864.191 150.992 900.559 148.023 913.18 176.227C913.18 176.227 899.07 140.602 820.398 158.414C820.398 158.414 836.352 152.848 835.238 138.742C834.129 124.641 816.309 129.098 816.309 129.098C816.309 129.098 789.59 69.7149 733.926 101.633C733.926 101.633 771.781 83.0781 790.34 120.188C790.34 120.188 755.453 86.0469 682.715 130.578C682.715 130.578 704.238 71.1992 763.617 80.1094C763.617 80.1094 723.535 44.4805 673.062 66.7461C673.062 66.7461 662.672 49.6758 647.828 58.582C647.828 58.582 632.238 33.3477 601.809 71.9414C571.379 110.539 579.543 145.785 610.715 168.434C610.715 168.434 600.324 157.301 586.594 162.496C572.859 167.691 580.285 180.68 580.285 180.68C580.285 180.68 568.777 162.867 560.242 181.055C560.242 181.055 569.891 158.785 553.934 137.262C537.977 115.734 507.547 129.469 507.547 129.469C507.547 129.469 537.977 121.672 549.109 151.363C549.109 151.363 538.719 120.188 478.969 139.488C478.969 139.488 495.668 101.262 544.656 117.594C544.656 117.594 503.09 80.4805 461.156 109.426C419.219 138.375 431.836 166.949 431.836 166.949C431.836 166.949 428.496 149.508 415.137 143.199C401.777 136.891 386.562 154.703 386.562 154.703C386.562 154.703 405.117 138.746 392.129 120.188C392.129 120.188 395.84 103.859 378.766 110.168C378.766 110.168 397.191 76.1211 359.469 63.4063C321.746 50.6914 320.871 109.426 338.688 135.406C338.688 135.406 321.613 104.973 303.059 122.785C284.504 140.602 304.543 165.836 304.543 165.836C304.543 165.836 285.246 136.148 265.203 157.672C245.164 179.195 192.465 179.195 185.043 171.773C177.621 164.352 162.043 162.133 151.645 175.484C151.645 175.484 145.719 156.301 131.602 172.516C117.93 188.227 92.4297 188.602 90.8477 188.613Z" fill="#CCCCCC"/>
</svg>
