<svg width="616" height="133" viewBox="0 0 616 133" fill="none" xmlns="http://www.w3.org/2000/svg">
<path fill-rule="evenodd" clip-rule="evenodd" d="M0.640625 131.965C0.640625 131.965 12.6484 119.469 24.1914 125.719C24.1914 125.719 13.6094 81.496 51.5781 64.1953C89.5508 46.8945 109.262 84.8632 109.262 84.8632C109.262 84.8632 89.0703 47.371 115.988 17.0937C142.898 -13.1876 182.309 6.51947 182.309 6.51947C182.309 6.51947 216.441 22.3788 218.359 65.1562C218.359 65.1562 222.211 58.4257 230.379 63.7148C230.379 63.7148 239.988 47.371 260.18 60.832C280.359 74.289 265.461 91.5937 265.461 91.5937C265.461 91.5937 288.051 56.5038 325.539 90.1484C325.539 90.1484 316.891 65.6367 333.23 53.621C349.578 41.6054 364 49.2968 370.719 57.4648C370.719 57.4648 373.129 44.0078 385.141 52.6601C385.141 52.6601 410.621 -16.5508 477.91 8.44135C545.191 33.4374 509.629 110.336 509.629 110.336C509.629 110.336 529.809 101.684 541.352 115.144C552.879 128.602 615.609 132.687 615.609 132.687L0.640625 131.965Z" fill="white"/>
<path fill-rule="evenodd" clip-rule="evenodd" d="M614.34 132.684L46.5586 131.953C50.9219 118.488 61.2617 103.824 85.7109 105.57C85.7109 105.57 73.6914 98.4609 56.8711 107.414C56.8711 107.414 75.1289 80.8242 106.141 97.4102C106.141 97.4102 110.941 85.3008 121.762 90.0391C121.762 90.0391 128 66.8711 153.961 68.1875C179.91 69.5039 174.629 95.3047 174.629 95.3047C174.629 95.3047 181.109 85.3008 193.609 89.2461C193.609 89.2461 177.988 89.7734 174.141 109.258C174.141 109.258 184 84.5117 224.371 91.0899C264.738 97.6719 268.828 118.734 268.828 118.734C268.828 118.734 269.309 101.621 284.691 101.621C284.691 101.621 285.172 92.6719 293.34 96.3555C293.34 96.3555 304.879 88.1953 310.891 102.148C310.891 102.148 311.852 98.1992 316.648 99.5156C316.648 99.5156 321.461 87.4063 333.238 98.1992C345.012 108.992 333.961 119.785 333.961 119.785C333.961 119.785 340.691 113.469 349.102 120.578C349.102 120.578 348.129 109.258 357.031 111.625C357.031 111.625 351.02 107.148 347.051 115.047C347.051 115.047 350.898 105.309 360.031 107.676C360.031 107.676 362.191 99.9102 369.039 103.07C375.891 106.23 377.211 113.602 375.41 114.785C375.41 114.785 384.059 88.0625 406.648 101.492C406.648 101.492 389.352 94.1211 386.469 109.391C386.469 109.391 391.27 90.1719 426.121 112.547C426.121 112.547 418.191 86.4844 438.859 75.9531C438.859 75.9531 409.059 43.3086 435.488 20.6719C435.488 20.6719 465.289 26.9883 467.211 58.5781C467.211 58.5781 472.5 22.25 433.09 11.1914C433.09 11.1914 478.75 -9.86718 493.172 43.8359C507.59 97.543 491.238 118.078 491.238 118.078C491.238 118.078 519.602 103.551 534.5 118.078C549.398 132.602 614.488 132.602 614.488 132.602L614.34 132.684Z" fill="#CCCCCC"/>
</svg>
