<svg width="1125" height="375" viewBox="0 0 1125 375" fill="none" xmlns="http://www.w3.org/2000/svg">
<path fill-rule="evenodd" clip-rule="evenodd" d="M224.094 312.316C224.094 312.316 242.137 276.234 288.527 271.082C334.918 265.926 351.672 313.605 351.672 313.605C351.672 313.605 358.758 297.496 377.441 304.586C377.441 304.586 369.066 277.523 401.926 274.945C401.926 274.945 426.41 277.523 418.68 303.297C418.68 303.297 428.988 288.477 445.098 300.719C445.098 300.719 438.008 266.57 472.156 252.394C472.156 252.394 506.305 235.644 529.504 277.523C444.164 -144.41 1035.27 -42.5001 821.379 302.652C821.379 302.652 844.574 280.746 869.059 302.652C881.395 237.019 975.969 241.23 965.711 331.004C960.289 378.391 1124.21 374.816 1124.21 374.816H0.519531C0.519531 374.816 155.152 374.816 224.094 312.316Z" fill="white"/>
<path fill-rule="evenodd" clip-rule="evenodd" d="M1064.92 374.816H54.6953C110.695 371.141 157.41 358.066 157.41 358.066C211.531 369.664 232.793 339.379 232.793 339.379C212.82 351.621 196.715 345.18 196.715 345.18C196.715 345.18 228.285 340.023 231.828 318.117C235.371 296.211 264.688 297.82 264.688 297.82C248.258 307.484 256.957 321.66 256.957 321.66C254.379 309.098 268.875 311.031 268.875 311.031C288.852 302.652 292.395 321.34 292.395 321.34C299.805 318.441 301.094 327.137 301.094 327.137C271.133 329.715 275.965 355.488 275.965 355.488C275.965 355.488 272.422 336.16 294.004 333.582C315.59 331.004 314.621 349.688 314.621 349.688C327.508 346.145 331.055 359.676 331.055 359.676C350.703 329.07 390.328 327.781 390.328 327.781C361.98 336.805 359.082 368.375 359.082 368.375C381.953 338.414 409.66 344.215 409.66 344.215C397.738 335.516 385.496 346.145 385.496 346.145C406.762 308.773 441.875 336.48 441.875 336.48C452.184 320.051 464.426 331.004 464.426 331.004C475.059 301.688 501.797 306.844 501.797 306.844C485.367 302.977 480.855 321.016 480.855 321.016C491.812 309.098 498.898 323.594 498.898 323.594C491.164 309.418 508.887 313.605 508.887 313.605C530.793 276.238 548.832 308.453 548.832 308.453C485.691 122.891 617.129 58.457 617.129 58.457C505.02 174.434 606.82 249.176 606.82 249.176C556.562 211.805 554.684 73.5078 689.293 104.848C823.902 136.188 744.703 260.129 744.703 260.129C744.703 260.129 769.836 244.02 789.809 267.859C809.781 291.699 782.074 318.117 782.074 318.117C803.98 303.297 804.629 321.984 804.629 321.984C829.109 316.184 829.754 343.246 829.754 343.246C828.469 319.406 847.152 307.809 847.152 307.809C838.113 320.883 841.352 342.602 841.352 342.602C841.352 342.602 850.531 293.285 889.031 305.23C927.539 317.18 929.621 341.957 929.621 341.957C925.762 303.941 899.34 294.277 899.34 294.277C953.461 303.941 955.398 359.355 955.398 359.355C988.898 369.66 1031.1 373.527 1064.92 374.816Z" fill="#CCCCCC"/>
</svg>
