<svg width="1593" height="211" viewBox="0 0 1593 211" fill="none" xmlns="http://www.w3.org/2000/svg">
<path fill-rule="evenodd" clip-rule="evenodd" d="M494.039 170.168C494.039 170.168 525.02 124.445 551.422 170.168C551.422 170.168 564.047 143.773 589.293 150.66C614.539 157.547 611.098 171.316 611.098 171.316C611.098 171.316 620.277 117.379 675.363 118.527C730.449 119.672 740.781 151.809 740.781 151.809C694.352 -5.76172 961.02 -76.2305 994.41 118.527C994.41 118.527 1010.47 92.1328 1036.87 103.605C1063.26 115.082 1050.07 140.906 1050.07 140.906C1050.07 140.906 1056.38 131.148 1068.43 139.758C1080.48 148.363 1070.72 155.824 1070.72 155.824C1070.72 155.824 1084.49 135.168 1106.3 154.102C1106.3 154.102 1111.46 144.348 1122.37 154.102C1159.95 85.2773 1233 155.59 1180.32 189.68C1180.32 189.68 1189.79 181.5 1203.85 189.68C1203.85 189.68 1209.59 180.926 1215.18 189.68C1215.18 189.68 1219.05 184.66 1221.78 189.68C1221.78 189.68 1221.06 180.5 1230.68 180.641C1240.29 180.785 1237.56 189.824 1237.56 189.824C1235.96 163.016 1279.88 157.398 1279.88 186.238C1279.88 186.238 1287.34 177.918 1292.79 185.949C1298.24 193.984 1362.8 215.789 1592.32 210.051H0.566406C0.566406 210.051 312.719 210.051 494.039 170.168Z" fill="white"/>
<path fill-rule="evenodd" clip-rule="evenodd" d="M1283.66 210.051H0.566406C0.566406 210.051 74.0391 210.051 170.398 205.496C325.449 200.977 507.676 195.133 507.676 195.133C507.676 195.133 509.395 182.508 521.445 180.785C533.496 179.063 540.957 192.836 540.957 192.836C575.961 158.406 605.223 169.883 605.223 169.883C579.922 168.672 574.238 187.098 574.238 187.098C601.781 164.145 620.145 185.949 620.145 185.949C620.145 185.949 629.324 157.258 683.262 145.781C737.199 134.305 785.398 193.984 785.398 193.984C730.32 154.965 762.449 103.32 762.449 103.32C840.488 20.6914 915.078 86.1055 915.078 86.1055C888.691 42.5 814.09 52.8203 814.09 52.8203C933.449 0.0312738 990.25 126.273 990.25 126.273C1031.57 100.453 1035.58 132.586 1035.58 132.586C1036.16 149.801 1006.89 165.293 1006.89 165.293C1025.83 164.434 1032.71 173.613 1032.71 173.613C1014.64 162.996 1004.02 178.488 1004.02 178.488C1028.7 163.859 1034.15 189.68 1034.15 189.68C1044.48 181.645 1050.22 191.688 1050.22 191.688C1050.22 191.688 1036.73 170.172 1056.81 159.555C1076.9 148.938 1080.05 165.004 1080.05 165.004C1087.8 162.422 1090.1 169.309 1090.1 169.309C1098.7 160.129 1110.47 162.996 1110.47 162.996C1093.83 164.719 1094.11 177.914 1094.11 177.914C1094.11 177.914 1095.26 166.441 1108.46 169.02C1121.66 171.605 1115.92 185.375 1115.92 185.375C1122.52 182.793 1128.83 192.262 1128.83 192.262C1128.83 192.262 1118.79 177.055 1127.11 161.273C1135.43 145.496 1148.34 143.488 1148.34 143.488C1138.87 147.789 1142.03 158.406 1142.03 158.406C1141.16 145.781 1163.83 142.914 1163.83 142.914C1147.25 137.824 1135.71 144.063 1135.71 144.063C1135.71 144.063 1154.65 127.707 1173.59 141.191C1192.52 154.676 1184.2 180.496 1184.2 180.496C1183.74 168.973 1177.89 163.285 1177.89 163.285C1186.5 180.785 1172.72 194.988 1172.72 194.988C1193.38 186.379 1198.54 199.148 1198.54 199.148C1197.25 192.98 1190.8 191.543 1190.8 191.543C1200.98 190.254 1202.28 199.004 1202.28 199.004C1205 196.852 1205.72 200.152 1205.72 200.152C1210.16 201.012 1208.87 204.598 1208.87 204.598C1213.32 208.902 1221.64 203.449 1221.64 203.449C1218.34 200.727 1214.04 203.309 1214.04 203.309C1217.62 192.117 1231.68 195.418 1231.68 195.418C1233.69 191.113 1237.13 194.844 1237.13 194.844C1266.11 181.07 1283.33 204.887 1283.33 204.887C1268.41 191.113 1250.91 193.41 1250.91 193.41C1266.12 195.359 1276.87 203.102 1283.66 210.051Z" fill="#CCCCCC"/>
</svg>
