<svg width="1382" height="282" viewBox="0 0 1382 282" fill="none" xmlns="http://www.w3.org/2000/svg">
<path fill-rule="evenodd" clip-rule="evenodd" d="M347.426 218.16C347.426 218.16 358.262 150.449 455.77 180.238C455.77 180.238 442.227 146.391 478.793 139.621C478.793 139.621 495.047 109.82 518.066 135.551C518.066 135.551 523.145 107.109 552.262 123.359C552.262 123.359 554.297 23.8203 651.805 3.51175C749.312 -16.8008 826.508 67.1602 789.941 184.98C789.941 184.98 822.445 153.84 859.012 183.629C859.012 183.629 877.969 198.531 871.199 220.199C871.199 220.199 900.988 198.531 918.602 228.32C936.199 258.121 1381.77 281.141 1381.77 281.141H0.390625C0.390625 281.141 237.391 243.219 279.371 254.051C279.371 254.051 275.312 208.012 347.426 218.16Z" fill="white"/>
<path fill-rule="evenodd" clip-rule="evenodd" d="M964.641 281.141H54.5469C137.699 277.309 285.469 264.719 285.469 264.719C307.137 216.648 343.703 254.57 343.703 254.57C332.867 222.738 364.016 226.801 364.016 226.801C377.559 217.32 380.266 230.191 380.266 230.191C405.32 169.922 460.848 190.91 460.848 190.91C434.215 187.172 418.188 203.102 418.188 203.102C452.723 180.078 471.684 213.262 471.684 213.262C462.879 188.879 471.684 163.148 471.684 163.148C465.59 197.012 496.734 199.039 496.734 199.039C496.734 199.039 468.973 191.59 486.578 170.602C504.184 149.609 510.277 171.949 510.277 171.949C563.773 119.141 615.914 171.281 615.914 171.281C663.312 177.371 642.32 148.93 642.32 148.93C632.844 133.359 626.07 148.93 626.07 148.93C596.953 108.301 565.805 142.84 565.805 142.84C544.812 103.559 600.363 26.4805 624.719 23.6602C649.07 20.8398 638.262 37.1992 665.348 37.1992C692.434 37.1992 710.035 54.8086 710.035 54.8086C638.773 52.4805 619.977 115.07 619.977 115.07C619.977 115.07 661.961 48.0391 728.996 81.2187C796.035 114.398 768.609 203.781 768.609 203.781C786.555 186.172 805.516 183.129 805.516 183.129C785.539 189.559 766.578 213.602 790.957 202.762C815.336 191.93 823.797 202.762 823.797 202.762C812.965 197.012 802.469 202.09 802.469 202.09C824.137 201.07 827.859 215.629 827.859 215.629C827.859 215.629 822.445 200.059 841.402 196.328C860.359 192.609 859.012 217.32 859.012 217.32C867.809 216.309 870.52 228.16 870.52 228.16C922.379 224.211 952.262 260.961 964.641 281.141Z" fill="#CCCCCC"/>
</svg>
