<svg width="735" height="169" viewBox="0 0 735 169" fill="none" xmlns="http://www.w3.org/2000/svg">
<path fill-rule="evenodd" clip-rule="evenodd" d="M684.469 122.801C684.469 122.801 683.75 100.379 665.66 101.102C665.66 101.102 660.602 53.3632 613.578 37.4492C566.57 21.5351 514.488 42.5117 508.699 99.6562C508.699 99.6562 506.531 80.125 488.449 81.5703C488.449 81.5703 502.191 56.9804 486.281 46.1289C486.281 46.1289 489.891 13.5781 460.238 20.8125C460.238 20.8125 422.621 -26.9258 380.672 22.9843C338.719 72.8906 380.672 111.23 380.672 111.23C380.672 111.23 368.371 90.2539 343.781 108.336C343.781 108.336 329.309 39.6171 267.109 70C267.109 70 243.961 83.0195 242.52 97.4843C242.52 97.4843 207.07 90.9765 199.48 125.336C191.879 159.691 0.558594 168.734 0.558594 168.734C209.57 168.629 928.961 172.426 684.469 122.801Z" fill="white"/>
<path fill-rule="evenodd" clip-rule="evenodd" d="M14.5195 168.73C199.559 168.762 695.102 170.527 732.27 144.144C722.621 138.578 704.16 133.148 668.922 131.844C668.922 131.844 662.41 84.8281 616.84 79.039C616.84 79.039 642.879 94.9531 647.219 121.719C647.219 121.719 604.539 50.1093 542.34 66.0195C542.34 66.0195 517.738 73.2539 512.68 108.699C512.68 108.699 482.121 94.2148 483.02 129.676C483.02 129.676 477.961 113.039 464.941 118.824C464.941 118.824 464.219 112.316 458.789 113.762C458.789 113.762 473.262 77.957 441.07 64.5742C441.07 64.5742 448.301 71.4453 448.66 82.6562C448.66 82.6562 439.98 69.6367 420.09 79.4023C420.09 79.4023 416.84 53.3632 443.602 54.4492C443.602 54.4492 399.102 31.332 382.48 59.871C365.859 88.414 391.879 130.758 391.879 130.758C391.879 130.758 372.352 103.273 343.422 118.465C343.422 118.465 330.398 103.273 317.379 117.738C317.379 117.738 307.379 74.9648 261.141 88.625C261.141 88.625 288.449 86.2734 296.398 109.422C296.398 109.422 273.262 84.1054 241.43 111.59C241.43 111.59 217.559 98.9335 207.43 119.187C197.309 139.437 224.43 149.566 224.43 149.566C224.43 149.566 208.16 140.16 196.219 151.734C196.219 151.734 182.84 143.055 170.91 154.629L14.5195 168.73Z" fill="#CCCCCC"/>
</svg>
