<svg width="1285" height="269" viewBox="0 0 1285 269" fill="none" xmlns="http://www.w3.org/2000/svg">
<path fill-rule="evenodd" clip-rule="evenodd" d="M1284.76 268.121C1284.76 268.121 1207.37 261.961 1184.5 254.922C1161.63 247.891 1158.99 238.211 1136.12 253.16C1165.34 209.93 1083.8 168.32 1065.76 232.059C1065.76 232.059 1067.52 215.34 1054.33 211.828C1041.13 208.309 1034.1 215.34 1034.1 215.34C1034.1 215.34 1056.09 197.75 1037.62 176.641C1095.11 39.3594 776.441 14.8203 853.789 209.191C853.789 209.191 843.238 177.52 811.578 209.191C797.41 147.781 695.867 180 721.863 239.09C721.863 239.09 711.312 205.672 672.609 226.781C672.609 226.781 693.719 147.621 614.562 140.578C599.535 -116.41 286.422 25.9414 408.754 195.121C385.047 152.449 314.344 223.871 364.773 247.891C364.773 247.891 354.223 228.539 320.797 242.609C320.797 242.609 294.414 154.66 174.797 216.219C55.1797 277.789 0.648438 265.48 0.648438 265.48L1284.76 268.121Z" fill="white"/>
<path fill-rule="evenodd" clip-rule="evenodd" d="M59.5195 260.691C19.5625 269.738 0.648438 265.48 0.648438 265.48L377.863 266.25C377.863 266.25 361.699 243.27 330.473 249.871C330.473 249.871 317.723 241.07 313.766 255.578C313.766 255.578 290.016 204.57 222.293 208.531C222.293 208.531 250.879 212.051 276.383 244.148C276.383 244.148 236.363 196.211 182.273 224.359C182.273 224.359 188.871 215.121 214.375 210.289C214.375 210.289 193.27 203.25 149.289 238.871C149.289 238.871 182.715 221.281 213.059 241.07C213.059 241.07 191.508 222.602 84.6445 259.98L59.5195 260.691ZM377.863 266.25L1113.99 267.77C1121.05 251.43 1128.58 222.609 1100.94 210.949C1100.94 210.949 1062.24 206.109 1075 251.84C1075 251.84 1068.84 225.02 1048.61 233.371C1048.61 233.371 1054.27 225.012 1063.34 230.078C1063.34 230.078 1051.03 214.238 1033 228.762C1033 228.762 1039.88 223.871 1051.25 226.559C1051.25 226.559 1036.3 223.262 1022.45 241.07C1022.45 241.07 1028.16 224.578 1043.77 221.5C1043.77 221.5 1029.26 218.422 1022.88 227C1022.88 227 1043.33 202.809 1025.3 186.539C1025.3 186.539 1002 162.352 986.16 196.648C986.16 196.648 1026.62 113.98 953.621 95.5117C880.621 77.039 869.191 149.16 869.191 149.16C869.191 149.16 869.191 79.6797 954.5 83.1914C954.5 83.1914 845 67.3594 858.191 171.148C858.191 171.148 863.469 211.609 881.941 236.23C881.941 236.23 863.469 205.449 838.84 214.238C814.219 223.039 823.891 243.27 823.891 243.27C823.891 243.27 815.102 228.32 804.102 241.07C804.102 241.07 805.422 214.238 783.871 212.922C783.871 212.922 792.672 217.32 795.75 237.551C795.75 237.551 792.672 207.648 752.211 202.371C711.75 197.09 725.383 245.469 725.383 245.469C725.383 245.469 700.762 216.199 677.891 241.512C677.891 241.512 706.031 240.691 713.949 253.82C713.949 253.82 685.801 239.18 642.707 252.941C642.707 252.941 689.324 186.98 621.598 156.199C621.598 156.199 633.914 180.82 615.441 204.57C615.441 204.57 629.516 172.91 604.008 150.039C604.008 150.039 590.816 55.0508 492.309 89.3515C492.309 89.3515 489.672 67.3594 470.32 77.9219C470.32 77.9219 450.09 53.289 428.98 84.9492C428.98 84.9492 445.547 37.0508 513.418 37.4609C513.418 37.4609 406.113 20.75 402.598 109.578C399.078 198.41 469.441 249.43 469.441 249.43C469.441 249.43 408.5 200.699 377.969 214.238C347.438 227.789 377.863 266.25 377.863 266.25Z" fill="#CCCCCC"/>
</svg>
