<svg width="773" height="204" viewBox="0 0 773 204" fill="none" xmlns="http://www.w3.org/2000/svg">
<path fill-rule="evenodd" clip-rule="evenodd" d="M772.121 197.941C787.031 -7.48045 549.672 -86.789 463.129 126.578C463.129 126.578 464.469 84.8399 434.852 94.2617C432.691 2.14065 286.961 13.3516 313.68 117.148C313.68 117.148 289.441 87.5313 263.859 125.23C263.859 125.23 250.398 114.461 247.031 130.621C247.031 130.621 191.828 112.441 197.891 172.352C197.891 172.352 184.422 146.77 155.48 172.352C126.531 197.941 0.640625 203.988 0.640625 203.988L772.121 197.941Z" fill="white"/>
<path fill-rule="evenodd" clip-rule="evenodd" d="M0.640625 203.988L772.121 197.941C772.121 197.941 769.5 140.66 741.488 133.48C713.48 126.289 698.398 156.371 698.398 156.371C702.441 78.2812 648.59 51.3516 648.59 51.3516C721.289 121.359 660.711 171.18 660.711 171.18C660.711 171.18 719.949 111.93 628.391 63.4609C536.84 15 461.441 134.148 461.441 134.148C437.879 103.18 423.07 126.07 423.07 126.07C426.77 112.609 443.941 116.309 443.941 116.309C424.75 106.039 403.551 126.41 403.551 126.41C445.961 85.3398 410.281 61.1094 410.281 61.1094C347 32.1602 331.52 104.531 331.52 104.531C370.898 108.57 373.59 145.93 373.59 145.93C373.59 145.93 369.211 114.961 339.262 114.961C309.301 114.961 309.301 136 309.301 136C302.91 133.309 302.059 140.711 302.059 140.711C288.77 143.91 297.18 154.012 297.18 154.012C288.602 150.641 287.09 159.391 287.09 159.391C285.07 133.141 261.5 134.148 261.5 134.148C270.59 136.172 275.641 143.57 275.641 143.57C227.84 123.039 215.051 174.879 215.051 174.879C222.461 135.16 246.691 135.16 246.691 135.16C203.27 132.129 200.41 182.281 200.41 182.281C195.871 170.328 186.441 177.738 186.441 177.738C165.578 199.949 0.640625 203.988 0.640625 203.988Z" fill="#CCCCCC"/>
</svg>
